<?xml version="1.0" encoding="utf-8"?>
<!-- Generator: Adobe Illustrator 23.0.2, SVG Export Plug-In . SVG Version: 6.00 Build 0)  -->
<svg version="1.1"
	 id="svg424" xmlns:cc="http://creativecommons.org/ns#" xmlns:dc="http://purl.org/dc/elements/1.1/" xmlns:inkscape="http://www.inkscape.org/namespaces/inkscape" xmlns:rdf="http://www.w3.org/1999/02/22-rdf-syntax-ns#" xmlns:sodipodi="http://sodipodi.sourceforge.net/DTD/sodipodi-0.dtd" xmlns:svg="http://www.w3.org/2000/svg"
	 xmlns="http://www.w3.org/2000/svg" xmlns:xlink="http://www.w3.org/1999/xlink" x="0px" y="0px" width="176" height="143.4" viewBox="0 0 176 143.4"
	 style="enable-background:new 0 0 176 143.4;" xml:space="preserve">
<style type="text/css">
	.st0{fill:url(#path27_1_);}
	.st1{fill:url(#path42_1_);}
	.st2{fill:url(#path57_1_);}
	.st3{fill:url(#path72_1_);}
	.st4{fill:url(#path87_1_);}
	.st5{fill:url(#path102_1_);}
</style>
<sodipodi:namedview  bordercolor="#666666" borderopacity="1.0" fit-margin-bottom="0" fit-margin-left="0" fit-margin-right="0" fit-margin-top="0" id="base" inkscape:current-layer="layer1" inkscape:cx="250.54999" inkscape:cy="214.49999" inkscape:document-units="mm" inkscape:pageopacity="0.0" inkscape:pageshadow="2" inkscape:window-height="744" inkscape:window-maximized="1" inkscape:window-width="1280" inkscape:window-x="-4" inkscape:window-y="-4" inkscape:zoom="1.2424243" pagecolor="#ffffff" showgrid="false">
	</sodipodi:namedview>
<g id="layer1" transform="translate(-75.071747,-192.81673)" inkscape:groupmode="layer" inkscape:label="Layer 1">
	<g id="g538" transform="matrix(0.59868292,0,0,0.59868292,30.127574,104.65185)">
		
			<linearGradient id="path27_1_" gradientUnits="userSpaceOnUse" x1="607.9351" y1="-113.952" x2="768.194" y2="-258.2498" gradientTransform="matrix(0.449 0 0 -0.449 -107.06 158.3058)">
			<stop  offset="0" style="stop-color:#FFD280"/>
			<stop  offset="2.465248e-03" style="stop-color:#FFD280"/>
			<stop  offset="0.2981" style="stop-color:#D9AE6D"/>
			<stop  offset="0.5722" style="stop-color:#BE955F"/>
			<stop  offset="0.8147" style="stop-color:#AE8557"/>
			<stop  offset="1" style="stop-color:#A88054"/>
		</linearGradient>
		<path id="path27" inkscape:connector-curvature="0" class="st0" d="M297.7,304.8H261l-27-56.2c-14.8,8-23.2,26.6-38.1,38.8
			c-7.6,6.2-16.5,11.8-27.7,15.6c-5,1.7-13.6,3.9-16.8,4.2c-1.4,0.1-2.2,0.1-2.5-0.4c-0.1-0.4,0.2-0.7,1.6-1.4
			c1.7-0.8,8.4-3.6,12.6-6.5c5.3-3.7,8.3-7.6,8.6-10.7c-1.4-5.1-11.8-16.5-1.2-37.3c3.8-7.5,7-12.8,9.4-18.2
			c2.7-6.2,4.6-14.9,5.2-21.4c0.1-0.4,0.1-0.4,0.3-0.1c5.2,5.2,25.1,25.7,22.2,46.2c6.6-2.6,18.2-10.3,23.5-14.4
			c5.6-4.4,9.2-8.9,15.1-9c5.3-0.1,5.8,2.5,10,3c1.1,0.1,2.6-0.1,3.4-0.4c0.3-0.1,0.2-0.5-0.2-0.6c-5.8-1.4-7.1-6.1-14.6-6.1
			c-6.7,0-12,6.2-15.9,8.7l-18.9-39.3c-7.9-16.4-5.5-28.4,11.9-51.9L297.7,304.8z"/>
		
			<linearGradient id="path42_1_" gradientUnits="userSpaceOnUse" x1="394.2661" y1="84.771" x2="790.8046" y2="-272.2739" gradientTransform="matrix(0.449 0 0 -0.449 -107.06 158.3058)">
			<stop  offset="0" style="stop-color:#FFD280"/>
			<stop  offset="2.465248e-03" style="stop-color:#FFD280"/>
			<stop  offset="0.2981" style="stop-color:#D9AE6D"/>
			<stop  offset="0.5722" style="stop-color:#BE955F"/>
			<stop  offset="0.8147" style="stop-color:#AE8557"/>
			<stop  offset="1" style="stop-color:#A88054"/>
		</linearGradient>
		<path id="path42" inkscape:connector-curvature="0" class="st1" d="M369,385.7l-12.9-15.2c6.8-1.6,10.9-5.5,10.9-12.2
			c0-7.6-6.5-11.5-14.6-11.5h-25.6v38.9h6.8V371h15.3l11.8,14.7H369z M333.5,352.8h19c4.7,0,7.5,2.2,7.5,5.8c0,3.8-2.9,6.2-7.5,6.2
			h-19V352.8z"/>
		
			<linearGradient id="path57_1_" gradientUnits="userSpaceOnUse" x1="421.7776" y1="-450.6096" x2="707.6556" y2="-708.0153" gradientTransform="matrix(0.449 0 0 -0.449 -107.06 158.3058)">
			<stop  offset="0" style="stop-color:#FFD280"/>
			<stop  offset="2.465248e-03" style="stop-color:#FFD280"/>
			<stop  offset="0.2981" style="stop-color:#D9AE6D"/>
			<stop  offset="0.5722" style="stop-color:#BE955F"/>
			<stop  offset="0.8147" style="stop-color:#AE8557"/>
			<stop  offset="1" style="stop-color:#A88054"/>
		</linearGradient>
		<path id="path57" inkscape:connector-curvature="0" class="st2" d="M95.2,346.8l-20.1,38.9h7.7l4.3-8.7h22.9l4.3,8.7h7.9
			L102,346.8H95.2z M90.1,371l8.5-17.1L107,371H90.1z"/>
		
			<linearGradient id="path72_1_" gradientUnits="userSpaceOnUse" x1="450.5006" y1="-337.0747" x2="753.3846" y2="-609.7927" gradientTransform="matrix(0.449 0 0 -0.449 -107.06 158.3058)">
			<stop  offset="0" style="stop-color:#FFD280"/>
			<stop  offset="2.465248e-03" style="stop-color:#FFD280"/>
			<stop  offset="0.2981" style="stop-color:#D9AE6D"/>
			<stop  offset="0.5722" style="stop-color:#BE955F"/>
			<stop  offset="0.8147" style="stop-color:#AE8557"/>
			<stop  offset="1" style="stop-color:#A88054"/>
		</linearGradient>
		<path id="path72" inkscape:connector-curvature="0" class="st3" d="M158.1,351.9c6.4,0,11.7,2.4,14.4,6.7l5.5-3.7
			c-3.8-5.4-10.6-9.2-19.9-9.2c-14.9,0-23.5,9.8-23.5,20.5c0,10.7,8.6,20.5,23.5,20.5c9.2,0,16-3.8,19.9-9.2l-5.5-3.7
			c-2.7,4.3-8,6.7-14.4,6.7c-10.1,0-16.5-5.6-16.5-14.3C141.6,357.6,148,351.9,158.1,351.9z"/>
		
			<linearGradient id="path87_1_" gradientUnits="userSpaceOnUse" x1="481.938" y1="-241.4536" x2="784.822" y2="-514.1716" gradientTransform="matrix(0.449 0 0 -0.449 -107.06 158.3058)">
			<stop  offset="0" style="stop-color:#FFD280"/>
			<stop  offset="2.465248e-03" style="stop-color:#FFD280"/>
			<stop  offset="0.2981" style="stop-color:#D9AE6D"/>
			<stop  offset="0.5722" style="stop-color:#BE955F"/>
			<stop  offset="0.8147" style="stop-color:#AE8557"/>
			<stop  offset="1" style="stop-color:#A88054"/>
		</linearGradient>
		<path id="path87" inkscape:connector-curvature="0" class="st4" d="M219.9,351.9c6.4,0,11.7,2.4,14.4,6.7l5.5-3.7
			c-3.8-5.4-10.6-9.2-19.9-9.2c-14.9,0-23.5,9.8-23.5,20.5c0,10.7,8.6,20.5,23.5,20.5c9.2,0,16.1-3.8,19.9-9.2l-5.5-3.7
			c-2.7,4.3-7.9,6.7-14.4,6.7c-10,0-16.5-5.6-16.5-14.3C203.4,357.6,209.8,351.9,219.9,351.9z"/>
		
			<linearGradient id="path102_1_" gradientUnits="userSpaceOnUse" x1="537.646" y1="-167.6729" x2="817.2107" y2="-419.394" gradientTransform="matrix(0.449 0 0 -0.449 -107.06 158.3058)">
			<stop  offset="0" style="stop-color:#FFD280"/>
			<stop  offset="2.465248e-03" style="stop-color:#FFD280"/>
			<stop  offset="0.2981" style="stop-color:#D9AE6D"/>
			<stop  offset="0.5722" style="stop-color:#BE955F"/>
			<stop  offset="0.8147" style="stop-color:#AE8557"/>
			<stop  offset="1" style="stop-color:#A88054"/>
		</linearGradient>
		<path id="path102" inkscape:connector-curvature="0" class="st5" d="M281.7,345.8c-14.9,0-23.5,9.8-23.5,20.5
			c0,10.7,8.5,20.5,23.5,20.5s23.5-9.7,23.5-20.5S296.6,345.8,281.7,345.8z M281.7,380.7c-10.1,0-16.5-5.6-16.5-14.4
			s6.4-14.4,16.5-14.4s16.5,5.6,16.5,14.4C298.3,375,291.7,380.7,281.7,380.7z"/>
	</g>
</g>
</svg>
